<?xml version="1.0" encoding="utf-8"?><svg viewBox="0 0 30 29" xmlns="http://www.w3.org/2000/svg" xmlns:xlink="http://www.w3.org/1999/xlink"><style>:root>svg{display:none}:root>svg:target{display:block}</style><svg fill="none" viewBox="0 0 30 29" id="behance" xmlns="http://www.w3.org/2000/svg"><path d="M9.218 5.406c.83 0 1.598.063 2.302.253a5.077 5.077 0 011.796.704c.515.317.894.768 1.155 1.345.254.578.388 1.282.388 2.05 0 .893-.19 1.66-.64 2.238-.388.578-1.021 1.092-1.797 1.472 1.092.316 1.923.894 2.43 1.662.506.767.83 1.724.83 2.816 0 .894-.19 1.662-.514 2.302a4.174 4.174 0 01-1.409 1.599 6.519 6.519 0 01-2.049.894c-.767.19-1.535.316-2.302.316l-8.576.016V5.406h8.386zm-.514 7.168c.704 0 1.281-.19 1.724-.514.444-.325.641-.894.641-1.598 0-.388-.063-.768-.19-1.021-.126-.253-.316-.451-.577-.64-.253-.128-.514-.254-.83-.317-.317-.064-.642-.064-1.021-.064H4.74v4.162c0-.008 3.964-.008 3.964-.008zm.19 7.556c.387 0 .767-.064 1.091-.127.317-.063.641-.19.895-.387.253-.198.45-.388.64-.705.127-.316.254-.704.254-1.155 0-.894-.254-1.535-.768-1.986-.514-.387-1.218-.577-2.05-.577H4.74v4.929h4.154v.008zM21.252 20.067c.514.514 1.282.767 2.302.767.704 0 1.345-.19 1.86-.514.514-.388.83-.768.957-1.155h3.133c-.515 1.534-1.282 2.626-2.303 3.33-1.02.641-2.239 1.021-3.71 1.021a7.45 7.45 0 01-2.753-.514 5.094 5.094 0 01-2.05-1.409 5.138 5.138 0 01-1.281-2.112c-.317-.83-.451-1.725-.451-2.753 0-.958.126-1.86.45-2.69a6.98 6.98 0 011.346-2.176c.577-.578 1.281-1.092 2.049-1.408.83-.317 1.661-.515 2.69-.515 1.092 0 2.049.19 2.88.641.83.451 1.471.958 1.986 1.725.514.704.894 1.535 1.155 2.429.126.894.19 1.796.126 2.816h-9.28c0 1.045.38 2.002.894 2.517zm4.035-6.726c-.451-.45-1.155-.704-1.986-.704-.578 0-1.02.127-1.408.317-.388.19-.641.45-.894.704a1.724 1.724 0 00-.451.894c-.064.316-.127.578-.127.83h5.76c-.127-.949-.451-1.59-.894-2.04zm-5.633-6.717h7.168V8.35h-7.168V6.624z" fill="currentColor"/></svg><svg fill="none" viewBox="0 0 16 16" id="codepen" xmlns="http://www.w3.org/2000/svg"><path d="M15.696 4.99L8.384.117a.695.695 0 00-.768 0L.304 4.99A.699.699 0 000 5.562v4.875a.7.7 0 00.304.572l7.312 4.875c.25.154.516.155.768 0l7.312-4.875a.7.7 0 00.304-.572V5.562a.7.7 0 00-.304-.571zM8.688 1.974l5.383 3.59-2.401 1.606-2.982-1.99V1.972zm-1.376 0v3.205L4.33 7.17 1.93 5.562l5.383-3.59zM1.375 6.848L3.098 8 1.375 9.15V6.848zm5.938 7.179l-5.384-3.59L4.33 8.83l2.982 1.991v3.206zM8 9.625L5.571 8 8 6.375 10.428 8 8 9.625zm.688 4.402V10.82L11.67 8.83l2.401 1.607-5.383 3.59zm5.937-4.876L12.902 8l1.723-1.152V9.15z" fill="currentColor"/></svg><svg fill="none" viewBox="0 0 29 29" id="github" xmlns="http://www.w3.org/2000/svg"><path d="M14.416 0C6.45 0 0 6.451 0 14.416c0 6.379 4.127 11.767 9.857 13.677.72.126.99-.306.99-.685 0-.342-.017-1.478-.017-2.685-3.622.667-4.56-.883-4.847-1.694-.163-.414-.865-1.694-1.478-2.036-.505-.27-1.225-.937-.018-.955 1.135-.018 1.946 1.045 2.216 1.478 1.298 2.18 3.37 1.567 4.199 1.189.126-.937.505-1.568.919-1.928-3.208-.36-6.56-1.604-6.56-7.118 0-1.568.56-2.865 1.478-3.874-.144-.36-.648-1.838.145-3.82 0 0 1.207-.379 3.964 1.477a13.377 13.377 0 013.604-.486c1.225 0 2.45.162 3.604.486 2.757-1.874 3.964-1.477 3.964-1.477.793 1.982.288 3.46.144 3.82.92 1.009 1.478 2.288 1.478 3.874 0 5.532-3.37 6.757-6.577 7.118.522.45.973 1.315.973 2.667 0 1.928-.018 3.478-.018 3.964 0 .378.27.829.99.685a14.439 14.439 0 009.822-13.677C28.832 6.45 22.38 0 14.416 0z" fill="currentColor"/></svg></svg>